#!OML:ASF G:\JayActor3\Patient Classification 1\Patient 1\Session 6\male.ASF
:FULLY-SPECIFIED
:DEGREES
1158
root 17.1201 14.3538 -10.2179 13.8452 -62.1345 2.86715
lowerback 37.6674 -1.26678 4.75989
upperback 19.8096 -1.97423 1.51004
thorax 3.25782 -1.38178 -0.34159
lowerneck 2.60866 2.66197 -1.15661
upperneck -19.0563 3.03096 -2.28677
head -6.1795 1.63889 -0.706507
rclavicle -2.62396e-014 3.86636e-014
rhumerus 2.46485 10.7207 -71.2492
rradius 63.7741
rwrist -6.42517
rhand -25.1994 -12.1383
rfingers 7.12502
rthumb 1.31902 -42.114
lclavicle -2.62396e-014 3.86636e-014
lhumerus 22.3701 -3.10179 53.0268
lradius 69.1757
lwrist 29.9846
lhand -14.9891 11.4383
lfingers 7.12502
lthumb 11.1752 41.1207
rfemur -65.7985 -5.59876 22.0358
rtibia 75.5329
rfoot -27.3303 -18.7675
rtoes 0.91526
lfemur -57.3162 14.746 -27.7884
ltibia 71.2728
lfoot -26.9055 9.90884
ltoes -8.12182
1159
root 17.077 14.3609 -10.2162 13.9305 -62.0292 2.87634
lowerback 37.6057 -1.3446 4.89635
upperback 19.8032 -2.02469 1.51777
thorax 3.26975 -1.39322 -0.390462
lowerneck 2.62273 2.6606 -1.15097
upperneck -19.0405 3.04082 -2.22705
head -6.17774 1.63904 -0.689189
rclavicle 4.21423e-014 -8.17999e-014
rhumerus 2.55034 10.7183 -71.2779
rradius 63.5814
rwrist -6.28675
rhand -25.2073 -12.1245
rfingers 7.12502
rthumb 1.31132 -42.1002
lclavicle 4.21423e-014 -8.17999e-014
lhumerus 22.2871 -3.20377 53.04
lradius 69.1959
lwrist 29.8748
lhand -14.7897 11.4742
lfingers 7.12502
lthumb 11.3676 41.146
rfemur -65.6826 -5.58237 22.0566
rtibia 75.5294
rfoot -27.4515 -18.7597
rtoes 0.840645
lfemur -57.3913 14.7205 -27.6647
ltibia 71.4796
lfoot -26.7277 9.78287
ltoes -8.53592
1160
root 17.0343 14.3691 -10.2146 13.9536 -61.925 2.96008
lowerback 37.5391 -1.41803 4.99769
upperback 19.796 -2.08013 1.5195
thorax 3.28154 -1.40925 -0.426228
lowerneck 2.63647 2.66018 -1.1668
upperneck -19.0254 3.05027 -2.16588
head -6.17658 1.64041 -0.667839
rclavicle -1.51076e-014 -1.58034e-014
rhumerus 2.61297 10.7204 -71.3078
rradius 63.4317
rwrist -6.16782
rhand -25.2051 -12.1058
rfingers 7.12502
rthumb 1.31347 -42.0815
lclavicle -1.51076e-014 -1.58034e-014
lhumerus 22.2025 -3.30612 53.0487
lradius 69.1959
lwrist 29.7534
lhand -14.5748 11.5238
lfingers 7.12502
lthumb 11.5748 41.1841
rfemur -65.5792 -5.59949 22.0615
rtibia 75.5217
rfoot -27.5798 -18.7549
rtoes 0.805159
lfemur -57.4743 14.6998 -27.5866
ltibia 71.6766
lfoot -26.5057 9.6579
ltoes -8.99257
1161
root 16.9921 14.3783 -10.2131 13.9055 -61.8272 3.12493
lowerback 37.4708 -1.47862 5.05609
upperback 19.7876 -2.13251 1.52525
thorax 3.29241 -1.42747 -0.436611
lowerneck 2.65835 2.66188 -1.19796
upperneck -19.0163 3.05762 -2.12457
head -6.17876 1.64345 -0.650315
rclavicle -4.73108e-014 -4.85035e-014
rhumerus 2.64999 10.7246 -71.3186
rradius 63.3302
rwrist -6.07471
rhand -25.191 -12.0766
rfingers 7.12502
rthumb 1.32707 -42.0522
lclavicle -4.73108e-014 -4.85035e-014
lhumerus 22.1224 -3.41151 53.0628
lradius 69.1826
lwrist 29.6277
lhand -14.3512 11.5781
lfingers 7.12502
lthumb 11.7905 41.2262
rfemur -65.4823 -5.6415 22.0384
rtibia 75.5109
rfoot -27.7178 -18.7412
rtoes 0.818573
lfemur -57.5598 14.6974 -27.5635
ltibia 71.8618
lfoot -26.2487 9.52881
ltoes -9.4651
1162
root 16.9502 14.3886 -10.2116 13.8092 -61.7387 3.34254
lowerback 37.3996 -1.52679 5.06994
upperback 19.7789 -2.18317 1.53266
thorax 3.30348 -1.44865 -0.422929
lowerneck 2.68101 2.67084 -1.23212
upperneck -19.011 3.07071 -2.10661
head -6.18193 1.65134 -0.640101
rclavicle 5.96354e-015 -3.60794e-014
rhumerus 2.66815 10.7478 -71.3206
rradius 63.275
rwrist -6.01657
rhand -25.1758 -12.051
rfingers 7.12502
rthumb 1.34174 -42.0265
lclavicle 5.96354e-015 -3.60794e-014
lhumerus 22.0353 -3.50896 53.0619
lradius 69.1661
lwrist 29.5034
lhand -14.1263 11.6323
lfingers 7.12502
lthumb 12.0074 41.2679
rfemur -65.3834 -5.69599 21.9921
rtibia 75.4942
rfoot -27.8597 -18.7135
rtoes 0.864159
lfemur -57.6464 14.7291 -27.5883
ltibia 72.0351
lfoot -25.9712 9.39062
ltoes -9.9172
1163
root 16.9087 14.3994 -10.2101 13.6824 -61.6627 3.59249
lowerback 37.3248 -1.55524 5.04902
upperback 19.7721 -2.22094 1.55063
thorax 3.31864 -1.46724 -0.384266
lowerneck 2.70089 2.68167 -1.28247
upperneck -19.0172 3.08119 -2.1081
head -6.18829 1.66052 -0.633284
rclavicle -4.8901e-014 -9.0447e-015
rhumerus 2.67101 10.7773 -71.2963
rradius 63.2632
rwrist -5.99899
rhand -25.161 -12.0306
rfingers 7.12502
rthumb 1.3561 -42.0061
lclavicle -4.8901e-014 -9.0447e-015
lhumerus 21.9587 -3.60472 53.0651
lradius 69.1475
lwrist 29.3792
lhand -13.9059 11.6407
lfingers 7.12502
lthumb 12.2198 41.2637
rfemur -65.2803 -5.75238 21.9285
rtibia 75.4697
rfoot -27.9963 -18.678
rtoes 0.908687
lfemur -57.7347 14.8045 -27.6534
ltibia 72.1977
lfoot -25.6824 9.23755
ltoes -10.3334
1164
root 16.8673 14.411 -10.2084 13.5516 -61.5964 3.84261
lowerback 37.2457 -1.56411 5.00669
upperback 19.766 -2.24184 1.58363
thorax 3.33692 -1.48056 -0.32395
lowerneck 2.72775 2.68974 -1.34881
upperneck -19.0409 3.08365 -2.121
head -6.20159 1.66774 -0.627241
rclavicle -5.56597e-015 3.62782e-014
rhumerus 2.65545 10.8105 -71.2459
rradius 63.2888
rwrist -6.01849
rhand -25.1541 -12.0189
rfingers 7.12502
rthumb 1.36272 -41.9943
lclavicle -5.56597e-015 3.62782e-014
lhumerus 21.8905 -3.70123 53.076
lradius 69.1351
lwrist 29.252
lhand -13.6982 11.6044
lfingers 7.12502
lthumb 12.4201 41.2154
rfemur -65.1658 -5.80285 21.8613
rtibia 75.433
rfoot -28.1277 -18.6431
rtoes 0.953059
lfemur -57.82 14.9262 -27.7405
ltibia 72.3503
lfoot -25.3998 9.05105
ltoes -10.653
1165
root 16.826 14.4234 -10.2063 13.4267 -61.5334 4.0769
lowerback 37.1702 -1.54987 4.94604
upperback 19.7621 -2.24051 1.64114
thorax 3.3583 -1.48662 -0.234917
lowerneck 2.74643 2.69111 -1.41599
upperneck -19.0786 3.0723 -2.15507
head -6.21767 1.66967 -0.626928
rclavicle 4.29375e-014 -6.95746e-014
rhumerus 2.63018 10.8416 -71.158
rradius 63.3437
rwrist -6.07236
rhand -25.165 -12.0159
rfingers 7.12502
rthumb 1.3522 -41.9914
lclavicle 4.29375e-014 -6.95746e-014
lhumerus 21.8386 -3.79549 53.1095
lradius 69.1308
lwrist 29.123
lhand -13.4992 11.5197
lfingers 7.12502
lthumb 12.612 41.119
rfemur -65.033 -5.84879 21.7992
rtibia 75.3816
rfoot -28.257 -18.6156
rtoes 0.982556
lfemur -57.8971 15.0896 -27.8384
ltibia 72.4951
lfoot -25.1241 8.83638
ltoes -10.9078
1166
root 16.7848 14.4363 -10.2038 13.3247 -61.4671 4.27407
lowerback 37.0975 -1.53375 4.9005
upperback 19.7612 -2.23297 1.70387
thorax 3.38264 -1.48896 -0.149998
lowerneck 2.75608 2.68499 -1.51296
upperneck -19.1308 3.04966 -2.17453
head -6.2377 1.66688 -0.616343
rclavicle -2.78299e-014 4.91992e-014
rhumerus 2.60057 10.8692 -71.0634
rradius 63.4164
rwrist -6.1412
rhand -25.1827 -12.0255
rfingers 7.12502
rthumb 1.33513 -42.0011
lclavicle -2.78299e-014 4.91992e-014
lhumerus 21.7955 -3.87802 53.1452
lradius 69.1409
lwrist 28.9988
lhand -13.316 11.4092
lfingers 7.12502
lthumb 12.7886 40.9975
rfemur -64.8776 -5.88798 21.7537
rtibia 75.3147
rfoot -28.3884 -18.6043
rtoes 0.995818
lfemur -57.9639 15.2819 -27.9286
ltibia 72.6357
lfoot -24.8563 8.5997
ltoes -11.0985
1167
root 16.7437 14.4496 -10.2007 13.2402 -61.3924 4.43727
lowerback 37.0337 -1.52044 4.87349
upperback 19.759 -2.22287 1.77127
thorax 3.40322 -1.48905 -0.0701455
lowerneck 2.76293 2.67193 -1.6249
upperneck -19.1884 3.01678 -2.18681
head -6.25941 1.65953 -0.600355
rclavicle 2.38542e-015 1.04362e-014
rhumerus 2.5632 10.8973 -70.9612
rradius 63.4999
rwrist -6.21579
rhand -25.2129 -12.0379
rfingers 7.12502
rthumb 1.30596 -42.0136
lclavicle 2.38542e-015 1.04362e-014
lhumerus 21.7527 -3.94736 53.1893
lradius 69.167
lwrist 28.8871
lhand -13.1631 11.3056
lfingers 7.12502
lthumb 12.936 40.8846
rfemur -64.6971 -5.91978 21.7217
rtibia 75.2335
rfoot -28.5271 -18.6134
rtoes 0.993153
lfemur -58.0186 15.4889 -28.0052
ltibia 72.7774
lfoot -24.5901 8.34912
ltoes -11.2528
1168
root 16.7028 14.4633 -10.1971 13.1818 -61.3023 4.556
lowerback 36.98 -1.51256 4.86682
upperback 19.7526 -2.21216 1.84925
thorax 3.41637 -1.48816 0.0105959
lowerneck 2.76824 2.6515 -1.75147
upperneck -19.2429 2.97224 -2.19774
head -6.28024 1.64737 -0.58071
rclavicle -4.37326e-014 3.16068e-014
rhumerus 2.52031 10.9316 -70.8457
rradius 63.584
rwrist -6.2897
rhand -25.2519 -12.0518
rfingers 7.12502
rthumb 1.26832 -42.0278
lclavicle -4.37326e-014 3.16068e-014
lhumerus 21.6936 -3.99926 53.2591
lradius 69.2119
lwrist 28.7903
lhand -13.0416 11.2204
lfingers 7.12502
lthumb 13.0531 40.7919
rfemur -64.4894 -5.94557 21.7067
rtibia 75.1395
rfoot -28.6736 -18.6439
rtoes 0.980994
lfemur -58.0651 15.6939 -28.0568
ltibia 72.9269
lfoot -24.3184 8.10005
ltoes -11.3797
1169
root 16.6622 14.477 -10.1929 13.1322 -61.1962 4.65205
lowerback 36.934 -1.5073 4.86741
upperback 19.739 -2.20067 1.93877
thorax 3.41959 -1.48724 0.0999392
lowerneck 2.77499 2.62524 -1.86571
upperneck -19.2847 2.9172 -2.22877
head -6.29668 1.63077 -0.568698
rclavicle 5.08889e-014 2.20651e-014
rhumerus 2.46963 10.9727 -70.716
rradius 63.6594
rwrist -6.35518
rhand -25.3004 -12.0561
rfingers 7.12502
rthumb 1.22145 -42.0324
lclavicle 5.08889e-014 2.20651e-014
lhumerus 21.6112 -4.03584 53.3597
lradius 69.2784
lwrist 28.7156
lhand -12.9574 11.1709
lfingers 7.12502
lthumb 13.1343 40.7373
rfemur -64.26 -5.96592 21.695
rtibia 75.0386
rfoot -28.8321 -18.6879
rtoes 0.976433
lfemur -58.1089 15.8868 -28.0924
ltibia 73.0902
lfoot -24.0334 7.86442
ltoes -11.4891
1170
root 16.6219 14.4905 -10.1882 13.0889 -61.078 4.73353
lowerback 36.8872 -1.51028 4.86586
upperback 19.7228 -2.19916 2.02307
thorax 3.41975 -1.49098 0.187842
lowerneck 2.76701 2.60363 -1.94318
upperneck -19.3056 2.86897 -2.28206
head -6.30283 1.6165 -0.569827
rclavicle -1.43125e-014 -7.17613e-014
rhumerus 2.43012 11.0278 -70.6052
rradius 63.7139
rwrist -6.40104
rhand -25.3506 -12.0523
rfingers 7.12502
rthumb 1.17291 -42.0288
lclavicle -1.43125e-014 -7.17613e-014
lhumerus 21.4999 -4.04061 53.4575
lradius 69.3662
lwrist 28.6689
lhand -12.9094 11.1647
lfingers 7.12502
lthumb 13.1805 40.728
rfemur -64.0203 -5.976 21.6808
rtibia 74.9367
rfoot -28.9996 -18.7461
rtoes 0.982761
lfemur -58.1617 16.0619 -28.1162
ltibia 73.2747
lfoot -23.7362 7.64175
ltoes -11.5335
